name Walk1.mot
datacolumns 19
datarows 22
range 1.63400000 1.65500000
endheader

                time	   L_ground_force_vx	   L_ground_force_vy	   L_ground_force_vz	   L_ground_force_px	   L_ground_force_py	   L_ground_force_pz	   R_ground_force_vx	   R_ground_force_vy	   R_ground_force_vz	   R_ground_force_px	   R_ground_force_py	   R_ground_force_pz	   L_ground_torque_x	   L_ground_torque_y	   L_ground_torque_z	   R_ground_torque_x	   R_ground_torque_y	   R_ground_torque_z	
          1.63400000	         24.99243646	        949.90328828	         71.83442741	         -0.21407805	          0.00000000	         -0.06581564	          0.00000000	          0.00000000	          0.00000000	          0.00000000	          0.00000000	          0.00000000	          0.00000000	          0.98803705	          0.00000000	          0.00000000	          0.00000000	          0.00000000	
          1.63500000	         25.14620924	        950.92988659	         72.06986657	         -0.21379527	          0.00000000	         -0.06592144	          0.00000000	          0.00000000	          0.00000000	          0.00000000	          0.00000000	          0.00000000	          0.00000000	          1.02992657	          0.00000000	          0.00000000	          0.00000000	          0.00000000	
          1.63600000	         25.36832970	        952.01246930	         72.37063863	         -0.21350620	          0.00000000	         -0.06600309	          0.00000000	          0.00000000	          0.00000000	          0.00000000	          0.00000000	          0.00000000	          0.00000000	          1.04533584	          0.00000000	          0.00000000	          0.00000000	          0.00000000	
          1.63700000	         25.68399134	        953.07944523	         72.71922025	         -0.21318968	          0.00000000	         -0.06606548	          0.00000000	          0.00000000	          0.00000000	          0.00000000	          0.00000000	          0.00000000	          0.00000000	          1.03400745	          0.00000000	          0.00000000	          0.00000000	          0.00000000	
          1.63800000	         26.07820518	        954.08418242	         73.07716762	         -0.21283973	          0.00000000	         -0.06612514	          0.00000000	          0.00000000	          0.00000000	          0.00000000	          0.00000000	          0.00000000	          0.00000000	          1.00572422	          0.00000000	          0.00000000	          0.00000000	          0.00000000	
          1.63900000	         26.50219921	        955.02748078	         73.38982164	         -0.21245848	          0.00000000	         -0.06621698	          0.00000000	          0.00000000	          0.00000000	          0.00000000	          0.00000000	          0.00000000	          0.00000000	          0.98186767	          0.00000000	          0.00000000	          0.00000000	          0.00000000	
          1.64000000	         26.89614442	        955.92060386	         73.61052580	         -0.21205015	          0.00000000	         -0.06636682	          0.00000000	          0.00000000	          0.00000000	          0.00000000	          0.00000000	          0.00000000	          0.00000000	          0.98557824	          0.00000000	          0.00000000	          0.00000000	          0.00000000	
          1.64100000	         27.21621760	        956.77303955	         73.73930274	         -0.21162590	          0.00000000	         -0.06655928	          0.00000000	          0.00000000	          0.00000000	          0.00000000	          0.00000000	          0.00000000	          0.00000000	          1.02537003	          0.00000000	          0.00000000	          0.00000000	          0.00000000	
          1.64200000	         27.44968487	        957.60670067	         73.82922816	         -0.21120370	          0.00000000	         -0.06674852	          0.00000000	          0.00000000	          0.00000000	          0.00000000	          0.00000000	          0.00000000	          0.00000000	          1.09127842	          0.00000000	          0.00000000	          0.00000000	          0.00000000	
          1.64300000	         27.61533758	        958.45093636	         73.94603211	         -0.21079979	          0.00000000	         -0.06689239	          0.00000000	          0.00000000	          0.00000000	          0.00000000	          0.00000000	          0.00000000	          0.00000000	          1.16560742	          0.00000000	          0.00000000	          0.00000000	          0.00000000	
          1.64400000	         27.75783496	        959.33583919	         74.12536335	         -0.21042331	          0.00000000	         -0.06697118	          0.00000000	          0.00000000	          0.00000000	          0.00000000	          0.00000000	          0.00000000	          0.00000000	          1.23106500	          0.00000000	          0.00000000	          0.00000000	          0.00000000	
          1.64500000	         27.93676511	        960.27229020	         74.36294998	         -0.21007481	          0.00000000	         -0.06698949	          0.00000000	          0.00000000	          0.00000000	          0.00000000	          0.00000000	          0.00000000	          0.00000000	          1.27426667	          0.00000000	          0.00000000	          0.00000000	          0.00000000	
          1.64600000	         28.21076630	        961.20996750	         74.62506057	         -0.20974288	          0.00000000	         -0.06697433	          0.00000000	          0.00000000	          0.00000000	          0.00000000	          0.00000000	          0.00000000	          0.00000000	          1.29148137	          0.00000000	          0.00000000	          0.00000000	          0.00000000	
          1.64700000	         28.61167967	        962.05527762	         74.86384736	         -0.20940703	          0.00000000	         -0.06696535	          0.00000000	          0.00000000	          0.00000000	          0.00000000	          0.00000000	          0.00000000	          0.00000000	          1.28959433	          0.00000000	          0.00000000	          0.00000000	          0.00000000	
          1.64800000	         29.11472511	        962.76173487	         75.04216771	         -0.20905360	          0.00000000	         -0.06699712	          0.00000000	          0.00000000	          0.00000000	          0.00000000	          0.00000000	          0.00000000	          0.00000000	          1.27949715	          0.00000000	          0.00000000	          0.00000000	          0.00000000	
          1.64900000	         29.64160940	        963.37583393	         75.16112651	         -0.20868706	          0.00000000	         -0.06708399	          0.00000000	          0.00000000	          0.00000000	          0.00000000	          0.00000000	          0.00000000	          0.00000000	          1.27227904	          0.00000000	          0.00000000	          0.00000000	          0.00000000	
          1.65000000	         30.11063692	        963.99289103	         75.26396241	         -0.20832220	          0.00000000	         -0.06721712	          0.00000000	          0.00000000	          0.00000000	          0.00000000	          0.00000000	          0.00000000	          0.00000000	          1.27859939	          0.00000000	          0.00000000	          0.00000000	          0.00000000	
          1.65100000	         30.48518261	        964.68390809	         75.40497589	         -0.20797076	          0.00000000	         -0.06737747	          0.00000000	          0.00000000	          0.00000000	          0.00000000	          0.00000000	          0.00000000	          0.00000000	          1.30490090	          0.00000000	          0.00000000	          0.00000000	          0.00000000	
          1.65200000	         30.77807229	        965.44410180	         75.61180323	         -0.20763756	          0.00000000	         -0.06754638	          0.00000000	          0.00000000	          0.00000000	          0.00000000	          0.00000000	          0.00000000	          0.00000000	          1.34942722	          0.00000000	          0.00000000	          0.00000000	          0.00000000	
          1.65300000	         31.03290400	        966.19955808	         75.87874151	         -0.20732026	          0.00000000	         -0.06770052	          0.00000000	          0.00000000	          0.00000000	          0.00000000	          0.00000000	          0.00000000	          0.00000000	          1.40145698	          0.00000000	          0.00000000	          0.00000000	          0.00000000	
          1.65400000	         31.30390966	        966.87401240	         76.18773620	         -0.20700775	          0.00000000	         -0.06781239	          0.00000000	          0.00000000	          0.00000000	          0.00000000	          0.00000000	          0.00000000	          0.00000000	          1.44411792	          0.00000000	          0.00000000	          0.00000000	          0.00000000	
          1.65500000	         31.62980385	        967.45667352	         76.52075354	         -0.20668434	          0.00000000	         -0.06787183	          0.00000000	          0.00000000	          0.00000000	          0.00000000	          0.00000000	          0.00000000	          0.00000000	          1.46204926	          0.00000000	          0.00000000	          0.00000000	          0.00000000	
